<?xml version="1.0" encoding="UTF-8" standalone="no"?>
<!DOCTYPE svg PUBLIC "-//W3C//DTD SVG 1.1//EN" "http://www.w3.org/Graphics/SVG/1.1/DTD/svg11.dtd">
<svg width="100%" height="100%" viewBox="0 0 2000 2000" version="1.1" xmlns="http://www.w3.org/2000/svg" xmlns:xlink="http://www.w3.org/1999/xlink" xml:space="preserve" xmlns:serif="http://www.serif.com/" style="fill-rule:evenodd;clip-rule:evenodd;stroke-linejoin:round;stroke-miterlimit:2;">
    <g transform="matrix(0.24,0,0,0.24,0,0)">
        <g id="页面-1" serif:id="页面 1" transform="matrix(4.16667,0,0,4.16667,0,0)">
            <rect x="0" y="0" width="2000" height="2000" style="fill:none;"/>
            <g id="图层-1" serif:id="图层 1">
                <g transform="matrix(1,0,0,1,1671.01,332.629)">
                    <path d="M0,-39.769L-166.2,-96.732L-96.733,-166.2L69.468,-109.237L126.431,56.964L56.963,126.431L0,-39.769Z" style="fill:white;fill-rule:nonzero;"/>
                </g>
                <g transform="matrix(-0.707107,-0.707107,-0.707107,0.707107,448.899,1455.93)">
                    <path d="M-41.754,-100.803C-9.142,-100.803 17.295,-74.366 17.295,-41.754C17.295,-9.142 -9.142,17.295 -41.754,17.295C-74.366,17.295 -100.803,-9.142 -100.803,-41.754C-100.803,-74.366 -74.366,-100.803 -41.754,-100.803" style="fill:white;fill-rule:nonzero;"/>
                </g>
                <g transform="matrix(1,0,0,1,1295.75,963.234)">
                    <path d="M0,17.061L0,-83.948C46.848,-86.823 92.855,-106.14 128.628,-141.914C160.73,-174.015 179.56,-214.345 185.178,-256.091L289.49,-256.09C297.895,-177.761 276.116,-102.159 222.249,-48.292C165.08,8.877 83.417,29.905 0,17.061M-125.821,-169.287C-188.586,-232.051 -188.586,-333.813 -125.821,-396.577C-63.057,-459.342 38.705,-459.342 101.469,-396.577C164.234,-333.813 164.234,-232.051 101.469,-169.287C38.705,-106.522 -63.057,-106.522 -125.821,-169.287M-840.024,591.392L-888.563,639.931C-901.397,652.765 -922.205,652.765 -935.039,639.931C-947.874,627.097 -947.874,606.288 -935.039,593.454L-886.501,544.916C-908.836,502.737 -902.256,449.257 -866.744,413.746C-831.233,378.235 -777.754,371.655 -735.575,393.99L-271.095,-70.49C-258.261,-83.324 -237.452,-83.324 -224.618,-70.49C-211.784,-57.656 -211.784,-36.847 -224.618,-24.013L-689.098,440.467C-666.763,482.646 -673.343,536.125 -708.855,571.636C-744.366,607.147 -797.845,613.728 -840.024,591.392M-312.169,-295.108C-325.013,-378.525 -303.985,-460.188 -246.815,-517.357C-192.949,-571.224 -117.347,-593.003 -39.017,-584.598L-39.017,-480.286C-80.763,-474.668 -121.093,-455.838 -153.194,-423.736C-188.968,-387.962 -208.285,-341.956 -211.16,-295.108L-312.169,-295.108ZM397.769,45.535L305.209,35.788C408.046,-72.8 412.75,-247.494 329.348,-401.293L391.162,-463.107L334.199,-629.307L167.999,-686.27L106.185,-624.456C-47.614,-707.858 -222.308,-703.155 -330.896,-600.317L-340.643,-692.877L-497.907,-726.217L-456.855,-336.662C-456.365,-332.009 -455.841,-327.268 -455.251,-322.484C-446.078,-248.092 -471.488,-173.598 -524.489,-120.596L-989.445,344.359L-1038.39,743.278L-639.468,694.336L-174.512,229.381C-121.511,176.38 -47.017,150.97 27.375,160.143C32.159,160.733 36.901,161.258 41.554,161.747L431.109,202.8L397.769,45.535Z" style="fill:white;fill-rule:nonzero;"/>
                </g>
                <g transform="matrix(1,0,0,1,212.69,1552.19)">
                    <path d="M0,-953.773L0,9.221L151.697,-962.994L0,-953.773Z" style="fill:white;fill-rule:nonzero;"/>
                </g>
                <g transform="matrix(1,0,0,1,1365.46,1599.49)">
                    <path d="M0,151.697L-962.994,151.697L9.221,0L0,151.697Z" style="fill:white;fill-rule:nonzero;"/>
                </g>
            </g>
        </g>
    </g>
</svg>
