<?xml version="1.0" encoding="UTF-8" standalone="no"?>
<!DOCTYPE svg PUBLIC "-//W3C//DTD SVG 1.1//EN" "http://www.w3.org/Graphics/SVG/1.1/DTD/svg11.dtd">
<svg width="100%" height="100%" viewBox="0 0 2000 2000" version="1.1" xmlns="http://www.w3.org/2000/svg" xmlns:xlink="http://www.w3.org/1999/xlink" xml:space="preserve" xmlns:serif="http://www.serif.com/" style="fill-rule:evenodd;clip-rule:evenodd;stroke-linejoin:round;stroke-miterlimit:2;">
    <g transform="matrix(0.24,0,0,0.24,0,0)">
        <g id="页面-1" serif:id="页面 1" transform="matrix(4.16667,0,0,4.16667,0,0)">
            <rect x="0" y="0" width="2000" height="2000" style="fill:none;"/>
            <g id="图层-1" serif:id="图层 1">
                <g transform="matrix(1,0,0,1,1467.1,1343.34)">
                    <path d="M0,175.552C-26.901,222.147 -76.618,250.85 -130.421,250.85L-580.372,250.85L-500.225,389.67L-20.528,389.67C14.869,389.67 47.577,370.786 65.276,340.132L305.124,-75.297L224.976,-214.118L0,175.552Z" style="fill:white;fill-rule:nonzero;"/>
                </g>
                <g transform="matrix(1,0,0,1,1199.07,441.519)">
                    <path d="M0,-106.96L213.099,-106.96C224.51,-106.96 235.054,-100.872 240.759,-90.991L347.308,93.559L401.324,0L298.293,-178.455C290.411,-192.108 275.843,-200.518 260.078,-200.518L54.016,-200.519L0,-106.96Z" style="fill:white;fill-rule:nonzero;"/>
                </g>
                <g transform="matrix(1,0,0,1,445.027,1170.94)">
                    <path d="M0,-401.037L-106.55,-216.488C-112.255,-206.606 -112.255,-194.431 -106.55,-184.549L0,0L-108.032,0L-211.063,-178.455C-218.946,-192.108 -218.946,-208.929 -211.063,-222.582L-108.032,-401.037L0,-401.037Z" style="fill:white;fill-rule:nonzero;"/>
                </g>
                <g transform="matrix(1,0,0,1,1486.34,903.174)">
                    <path d="M0,134.498C-37.14,134.498 -67.249,104.39 -67.249,67.249C-67.249,30.108 -37.14,0 0,0C37.141,0 67.249,30.108 67.249,67.249C67.249,104.39 37.141,134.498 0,134.498M-142.07,27.527L-422.852,-134.582L-703.634,27.527L-703.634,-69.271L-422.852,-231.381L-142.07,-69.271L-142.07,27.527ZM-142.07,233.35L-422.852,71.24L-703.634,233.349L-703.634,136.551L-422.852,-25.558L-142.07,136.551L-142.07,233.35ZM-177.802,491.689C-209.966,510.259 -251.095,499.239 -269.665,467.074C-288.236,434.91 -277.215,393.781 -245.05,375.211C-212.886,356.641 -171.757,367.661 -153.187,399.826C-134.617,431.99 -145.637,473.119 -177.802,491.689M-576.039,467.074C-594.61,499.239 -635.738,510.259 -667.903,491.689C-700.068,473.118 -711.088,431.99 -692.518,399.825C-673.948,367.66 -632.819,356.64 -600.654,375.21C-568.49,393.781 -557.469,434.909 -576.039,467.074M-667.903,-357.191C-635.738,-375.762 -594.609,-364.741 -576.039,-332.577C-557.469,-300.412 -568.489,-259.283 -600.654,-240.713C-632.819,-222.143 -673.947,-233.163 -692.518,-265.328C-711.088,-297.492 -700.067,-338.621 -667.903,-357.191M-269.665,-332.577C-251.095,-364.741 -209.966,-375.762 -177.801,-357.191C-145.637,-338.621 -134.616,-297.492 -153.187,-265.328C-171.757,-233.163 -212.886,-222.143 -245.05,-240.713C-277.215,-259.283 -288.235,-300.412 -269.665,-332.577M-845.705,134.497C-882.845,134.498 -912.953,104.389 -912.954,67.249C-912.953,30.108 -882.845,0 -845.705,0C-808.564,0 -778.456,30.108 -778.456,67.249C-778.456,104.389 -808.564,134.498 -845.705,134.497M186.887,24.385L-80.861,-439.368C-96.175,-465.893 -124.476,-482.233 -155.104,-482.233L-690.6,-482.233C-721.228,-482.233 -749.529,-465.893 -764.843,-439.369L-1032.59,24.384C-1047.9,50.909 -1047.9,83.588 -1032.59,110.113L-764.844,573.866C-749.53,600.391 -721.229,616.73 -690.601,616.73L-155.105,616.731C-124.477,616.731 -96.175,600.391 -80.862,573.866L186.887,110.114C202.201,83.589 202.201,50.909 186.887,24.385" style="fill:white;fill-rule:nonzero;"/>
                </g>
            </g>
        </g>
    </g>
</svg>
