<?xml version="1.0" encoding="UTF-8" standalone="no"?>
<!DOCTYPE svg PUBLIC "-//W3C//DTD SVG 1.1//EN" "http://www.w3.org/Graphics/SVG/1.1/DTD/svg11.dtd">
<svg width="100%" height="100%" viewBox="0 0 1000 1000" version="1.1" xmlns="http://www.w3.org/2000/svg" xmlns:xlink="http://www.w3.org/1999/xlink" xml:space="preserve" xmlns:serif="http://www.serif.com/" style="fill-rule:evenodd;clip-rule:evenodd;stroke-linejoin:round;stroke-miterlimit:2;">
    <g transform="matrix(0.24,0,0,0.24,0,0)">
        <g id="页面-1" serif:id="页面 1" transform="matrix(4.16667,0,0,4.16667,0,0)">
            <rect x="0" y="0" width="1000" height="1000" style="fill:none;"/>
            <g id="图层-1" serif:id="图层 1">
                <g transform="matrix(1,0,0,1,667.375,504.456)">
                    <path d="M0,-8.912C-8.537,6.428 -7.654,15.096 -14.901,26.368C-21.155,36.094 -33.351,47.586 -59.604,54.198C-57.198,51.862 -53.607,48.164 -49.743,43.241C-35.255,24.786 -38.282,16.332 -27.172,-0.366C-14.573,-19.303 2.957,-28.926 9.157,-32.241C16.314,-36.068 22.702,-38.395 27.245,-39.809C19.093,-33.635 8.253,-23.741 0,-8.912M-88.464,23.273C-90.886,24.667 -94.659,26.312 -100.143,30.093C-105.878,34.047 -110.105,38.007 -112.853,40.831C-108.173,26.477 -101.467,19.42 -96.097,15.623C-92.831,13.314 -88.811,11.328 -82.337,6.282C-77.144,2.234 -73.256,-1.535 -70.78,-4.091C-75.518,12.703 -82.582,19.885 -88.464,23.273M-500.754,58.321C-502.883,83.866 -496.197,144.915 -445.643,188.247C-402.088,225.581 -389.849,231.541 -325.643,239.21C-329.161,238.79 -388.237,219.002 -401.637,166.878C-403.091,161.223 -408.397,140.582 -400.551,118.503C-392.599,96.123 -376.986,88.733 -370.693,63.231C-367.796,51.494 -368.18,41.214 -368.945,34.403C-362.056,51.477 -363.234,63.252 -365.585,70.852C-368.313,79.675 -372.209,81.531 -377.418,94.591C-381.86,105.728 -385.54,114.955 -383.539,124.157C-379.225,143.997 -349.414,159.569 -336.878,151.492C-327.144,145.221 -328.846,125.299 -329.148,120.588C-329.813,110.198 -333.091,102.085 -335.564,97.148C-338.647,91.651 -345.38,77.914 -344.329,59.457C-344.043,54.437 -342.979,39.139 -332.715,25.054C-323.717,12.705 -316.946,14.048 -298.743,0.081C-292.234,-4.913 -276.661,-17.066 -264.346,-36.522C-252.439,-55.332 -244.478,-79.544 -244.478,-79.545C-239.957,-48.994 -247.171,-32.843 -254.266,-23.813C-268.251,-6.013 -291.494,-3.512 -294.153,14.504C-294.247,15.142 -295.577,25.051 -289.843,30.234C-281.488,37.787 -262.785,31.099 -251.417,22.424C-240.08,13.773 -234.803,2.204 -232.873,-2.751C-232.472,-3.78 -232.216,-4.525 -232.133,-4.748C-225.663,-22.23 -150.843,-67.561 -116.505,-95.031C-75.6,-127.754 -67.744,-167.188 -65.959,-175.671C-65.959,-175.671 -68.229,-134.31 -73.044,-121.144C-78.413,-106.462 -87.872,-97.806 -98.39,-84.22C-119.277,-57.242 -104.268,-46.679 -100.435,-46.237C-79.18,-43.79 -72.679,-86.558 -72.679,-86.558C-72.679,-86.558 -77.91,-43.053 -100.143,-21.603C-139.514,16.38 -112.597,30.824 -153.465,98.755C-146.791,90.994 -132.853,83.601 -121.034,69.464C-106.133,51.641 -93.494,50.298 -89.041,54.271C-81.309,61.115 -78.936,77.707 -118.013,113.472C-111.794,109.043 -102.36,102.905 -90.117,97.143C-69.605,87.49 -62.822,89.064 -48.72,83.196C-25.981,73.735 -30.484,64.176 9.422,31.627C20.931,22.241 18.111,25.641 48.428,2.483C67.582,-12.149 87.464,-23.612 87.464,-23.612C87.464,-23.612 57.632,3.675 57.522,3.798C26.953,37.763 14.854,48.381 12.709,65.921C11.125,78.879 21.007,94.092 32.066,96.636C45.531,99.735 64.947,84.474 74.246,55.688C72.99,67.697 69.885,84.619 61.43,102.918C42.929,142.957 11.183,162.814 18.334,180.637C18.534,181.137 21.6,188.487 27.976,190.133C36.047,192.216 44.356,183.85 46.821,181.367C57.865,170.247 55.933,160.24 63.183,146.598C67.004,139.408 74.275,129.518 89.479,120.595C85.464,125.078 79.504,132.511 74.432,142.8C62.789,166.415 68.494,179.363 55.463,196.686C51.574,201.855 45.741,206.343 34.073,215.318C21.442,225.035 12.789,231.587 0.219,236.734C-6.296,239.403 -19.771,241.983 -46.456,247.034C-57.344,249.095 -60.082,249.52 -64.821,250.419C-83.799,254.018 -110.885,259.367 -139.368,271.357C-159.569,279.861 -165.31,285.79 -186.043,291.079C-194.44,293.221 -213.696,294.139 -225.487,288.011C-228.583,286.402 -231.171,284.048 -232.499,280.999C-234.966,275.333 -229.121,270.862 -228.335,268.947C-235.295,273.6 -244.951,279.466 -245.866,287.792C-246.021,300.453 -230.371,304.315 -212.777,324.168C-197.98,340.865 -191.491,357.796 -181.66,384.21C-175.199,401.569 -171.385,416.528 -169.097,427.087C-164.42,399.616 -155.897,378.404 -149.01,364.269C-139.484,344.722 -129.33,324.48 -107.813,309.486C-94.569,300.257 -82.488,296.827 -78.011,295.462C-49.748,286.845 52.563,245.577 111.873,166.186C166.645,92.87 166.518,11.44 166.321,-1.242C165.726,-39.443 156.84,-70.315 149.375,-90.356C149.624,-79.793 150.138,-71.385 150.543,-65.813C151.312,-55.243 151.999,-50.642 148.79,-46.53C145.953,-42.894 140.879,-40.677 136.227,-41.27C128.008,-42.319 123.744,-51.801 121.91,-55.879C116.84,-67.155 119.316,-74.822 118.988,-90.356C118.988,-90.356 118.636,-107.04 114.05,-124.398C109.272,-142.478 100.465,-154.432 90.647,-167.49C70.806,-193.88 49.29,-209.014 34.55,-219.205C23.592,-226.781 8.464,-236.136 -10.737,-244.917C30.974,-206.932 51.832,-161.728 38.932,-128.923C34.312,-117.174 19.444,-91.964 -0.804,-92.401C-9.477,-92.588 -18.443,-97.468 -23.593,-104.672C-32.024,-116.466 -25.774,-128.252 -25.346,-151.421C-25.321,-152.818 -25.043,-181.994 -37.326,-210.732C-47.603,-234.779 -62.834,-249.533 -71.51,-257.772C-80.998,-266.782 -109.534,-293.879 -150.903,-300.32C-166.098,-302.686 -167.181,-302.058 -189.45,-307.946C-202.611,-311.425 -216.303,-324.949 -220.765,-336.33C-230.363,-360.815 -226.071,-404.883 -145.43,-435.999C-152.254,-433.366 -252.643,-399.715 -281,-331.401C-287.428,-315.915 -296.202,-281.406 -266.391,-239.365C-254.996,-223.296 -231.123,-201.411 -235.128,-178.301C-238.064,-161.365 -252.693,-149.82 -254.412,-148.499C-267.296,-138.596 -281.119,-137.659 -285.967,-137.396C-312.384,-135.965 -318.669,-154.978 -370.714,-180.864C-399.95,-195.406 -413.401,-197.185 -421.538,-197.553C-429.513,-197.914 -451.336,-197.779 -451.338,-197.584C-448.018,-196.394 -414.531,-183.831 -407.96,-153.95C-403.019,-131.481 -415.057,-110.221 -422.559,-99.852C-491.569,-4.456 -497.199,15.655 -500.754,58.321" style="fill:white;fill-rule:nonzero;"/>
                </g>
                <g transform="matrix(1,0,0,1,504.122,751.27)">
                    <path d="M0,-172.237C0.572,-162.037 -4.682,-153.442 -12.107,-151.086C-17.153,-149.484 -21.833,-151.199 -23.812,-152.077C-18.319,-142.399 -18.933,-130.363 -25.382,-121.297C-31.823,-112.242 -42.973,-107.714 -53.906,-109.712C-46.315,-103.654 -41.705,-95.428 -43.534,-88.821C-45.759,-80.784 -57.531,-75.072 -59.604,-74.066C-60.188,-73.783 -61.956,-72.957 -64.279,-71.583C-67.269,-69.814 -69.512,-68.124 -70.853,-67.054C-69.754,-67.356 -64.981,-68.537 -60.334,-65.885C-59.908,-65.642 -54.919,-62.711 -54.289,-58.261C-53.396,-51.953 -61.885,-46.999 -77.659,-34.029C-84.912,-28.065 -90.583,-22.973 -94.121,-19.721C-86.327,-21.887 -79.698,-23.586 -74.651,-24.835C-61.011,-28.208 -55.089,-29.235 -53.322,-26.588C-52.73,-25.7 -52.805,-24.7 -52.884,-23.666C-53.2,-19.5 -56.929,-17.921 -60.334,-13.294C-61.48,-11.737 -62.934,-9.366 -64.027,-5.989C-61.91,-7.974 -58.549,-10.807 -53.906,-13.44C-50.896,-15.147 -50.441,-15.015 -47.186,-16.8C-38.552,-21.535 -37.689,-24.69 -34.769,-24.25C-29.77,-23.496 -27.321,-13.496 -26.608,-10.584C-25.556,-6.286 -25.538,-2.557 -25.711,0C-24.434,-1.057 -22.553,-2.751 -20.598,-5.113C-18.33,-7.853 -17.095,-10.125 -16.362,-11.394C-12.314,-18.406 -9.142,-23.898 -4.574,-25.022C0.422,-26.25 5.628,-21.894 11.541,-16.946C15.469,-13.659 18.189,-10.408 19.868,-8.181C18.287,-10.683 15.205,-16.381 15.8,-23.729C16.035,-26.626 16.36,-30.641 19.236,-33.086C22.984,-36.273 29.846,-35.754 36.19,-31.701C36.131,-31.947 35.169,-36.208 37.562,-38.102C37.879,-38.353 38.966,-39.125 41.489,-38.859C47.263,-38.251 51.573,-33.152 53.136,-31.116C52.948,-33.512 53.123,-36.691 55.132,-38.981C57.823,-42.05 61.78,-41.211 66.324,-42.073C76.235,-43.952 77.438,-51.744 88.529,-58.289C92.333,-60.534 98.262,-63.199 106.896,-64.132C99.098,-68.203 93.018,-68.587 88.967,-68.223C79.883,-67.404 76.335,-62.399 67.054,-63.11C64.398,-63.313 57.499,-63.841 55.075,-68.223C51.78,-74.177 58.176,-84.669 64.863,-90.282C70.207,-94.767 73.311,-94.1 78.887,-99.193C83.499,-103.405 86.064,-108.144 87.507,-111.465C83.221,-108.609 76.56,-104.703 67.785,-101.677C57.784,-98.228 56.042,-99.719 49.232,-96.564C37.744,-91.241 40.026,-85.76 27.026,-78.595C23.068,-76.413 15.241,-72.1 4.967,-71.29C2.134,-71.067 0.206,-71.197 -3.31,-70.562C-10.251,-69.308 -15.563,-66.489 -18.991,-64.278C-16.635,-66.513 -13.2,-69.389 -8.619,-72.021C-2.222,-75.696 0.421,-75.452 7.889,-79.617C10.739,-81.207 14.636,-83.41 18.845,-87.214C23.43,-91.357 23.124,-92.644 28.195,-98.171C31.197,-101.442 35.909,-106.501 43.096,-110.588C46.234,-112.373 50.709,-114.463 56.536,-115.847C49.199,-117.156 43.258,-116.939 39.005,-116.432C29.911,-115.346 24.102,-112.397 20.452,-115.555C18.066,-117.62 17.992,-121.093 17.972,-121.983C17.813,-129.41 25.855,-136.945 37.837,-141.413C28.041,-142.748 21.681,-140.64 17.823,-138.637C12.249,-135.744 9.946,-132.057 1.607,-123.005C-4.207,-116.695 -9.229,-111.82 -12.564,-108.689C-11.812,-110.068 -10.879,-112.164 -10.518,-114.825C-10.075,-118.091 -10.91,-119.138 -10.578,-121.156C-9.869,-125.464 -5.078,-126.715 -1.023,-130.31C1.658,-132.687 4.949,-136.915 6.574,-144.919C5.823,-145.53 4.776,-146.54 4.024,-148.041C2.198,-151.685 3.599,-155.25 3.944,-158.505C4.277,-161.639 3.816,-166.223 0,-172.237" style="fill:white;fill-rule:nonzero;"/>
                </g>
                <g transform="matrix(1,0,0,1,549.993,605.183)">
                    <path d="M0,-124.759C-3.194,-113.714 -8.859,-98.995 -19.576,-84.147C-33.265,-65.181 -44.84,-60.357 -59.896,-40.905C-67.002,-31.724 -75.541,-18.435 -82.393,0C-87.273,-31.915 -79.62,-48.98 -72.137,-59.313C-59.02,-77.427 -52.007,-77.134 -29.862,-90.938C-13.808,-100.945 -5.896,-115.857 0,-124.759" style="fill:white;fill-rule:nonzero;"/>
                </g>
                <g transform="matrix(1,0,0,1,482.793,637.615)">
                    <path d="M0,-134.401C-1.166,-131.356 -3.33,-126.569 -7.271,-121.628C-10.988,-116.969 -14.624,-114.256 -15.777,-113.364C-19.394,-110.57 -39.257,-94.277 -47.317,-70.701C-48.792,-66.388 -56.1,-43.612 -48.793,-28.633C-48.027,-27.064 -45.957,-23.234 -44.703,-17.531C-43.121,-10.338 -43.701,-4.085 -44.411,0C-33.851,-10.725 -29.84,-20.573 -28.1,-27.426C-25.403,-38.056 -28.112,-41.709 -26.004,-60.481C-24.614,-72.848 -23.871,-79.464 -20.452,-87.945C-15.431,-100.402 -10.01,-103.554 -4.521,-118.05C-1.961,-124.812 -0.678,-130.629 0,-134.401" style="fill:white;fill-rule:nonzero;"/>
                </g>
                <g transform="matrix(1,0,0,1,441.154,687.709)">
                    <path d="M0,-175.478C-0.775,-171.585 -1.147,-168.809 -4.196,-161.363C-18.769,-125.768 -49.828,-110.123 -54.049,-77.12C-54.7,-72.032 -56.515,-56.005 -46.756,-42.611C-31.882,-22.199 -1.934,-24.105 1.611,-24.383C-22.315,-4.073 -50.325,0 -64.862,-11.397C-84.832,-27.054 -73.124,-67.001 -72.264,-69.814C-63.222,-99.389 -31.371,-128.571 -16.139,-147.462C-3.472,-163.17 -3.315,-168.041 0,-175.478" style="fill:white;fill-rule:nonzero;"/>
                </g>
                <g transform="matrix(1,0,0,1,362.344,724.756)">
                    <path d="M0,-66.616C-15.358,-47.114 -22.809,-29.452 -17.202,-22.899C-12.214,-17.07 2.73,-20.474 11.641,-22.504C25.38,-25.633 28.246,-28.734 39.663,-31.445C45.579,-32.851 57.962,-36.158 72.533,-32.651C65.601,-32.582 51.445,-31.844 42.746,-27.418C31.64,-21.768 15.056,-11.603 13.915,-10.957C-5.186,-0.141 -18.078,0 -26.077,-1.972C-32.56,-3.571 -33.783,-10.661 -34.111,-13.805C-36.649,-38.118 -3.827,-62.211 0,-66.616" style="fill:white;fill-rule:nonzero;"/>
                </g>
                <g transform="matrix(1,0,0,1,379.801,812.98)">
                    <path d="M0,-94.725C-8.577,-84.842 -16.183,-77.592 -21.329,-72.958C-36.058,-59.692 -45.061,-54.86 -55.075,-40.673C-61.716,-31.263 -63.14,-25.761 -63.694,-22.266C-65.123,-13.249 -63.673,0.82 -56.244,4.176C-45.433,9.06 -27.148,-11.08 -21.767,-17.006C-13.672,-25.922 -8.677,-34.714 -5.99,-39.504C2.033,-53.805 2.155,-60.021 11.249,-72.081C13.823,-75.495 16.714,-78.643 22.497,-84.937C29.961,-93.061 36.432,-99.457 40.954,-103.785C31.034,-98.508 23.174,-93.123 17.384,-88.735C5.911,-80.041 0.174,-75.693 -3.863,-69.34C-8.836,-61.515 -9.665,-55.224 -17.823,-46.224C-18.846,-45.095 -21.401,-42.361 -25.419,-39.796C-30.259,-36.707 -38.992,-32.734 -41.781,-35.559C-43.058,-36.853 -42.76,-39.239 -42.219,-41.403C-39.165,-53.621 -27.568,-61.892 -19.284,-69.744C-13.766,-74.974 -6.633,-82.943 0,-94.725" style="fill:white;fill-rule:nonzero;"/>
                </g>
                <g transform="matrix(1,0,0,1,429.617,786.618)">
                    <path d="M0,-49.974C-1.128,-48.173 -2.993,-45.652 -5.917,-43.4C-8.116,-41.706 -10.022,-40.851 -11.011,-40.387C-11.011,-40.387 -14.567,-38.72 -24.58,-31.791C-33.753,-25.443 -44.123,-10.56 -40.539,-5.107C-37.183,0 -22.404,-4.405 -18.334,-5.618C-7.226,-8.929 4.731,-16.532 8.327,-23.806C8.749,-24.661 10.521,-28.474 13.915,-32.785C14.821,-33.936 15.805,-35.176 17.238,-36.516C18.963,-38.127 22.038,-40.538 26.88,-42.213C21.883,-41.317 18.034,-39.756 15.193,-38.269C12.771,-37.001 10.645,-35.557 8.67,-34.217C2.267,-29.869 1.558,-28.36 -1.534,-27.75C-4.046,-27.255 -8.119,-27.356 -9.569,-29.723C-11.025,-32.1 -9.136,-35.625 -8.619,-36.589C-6.907,-39.783 -4.899,-40.011 -2.703,-43.09C-1.554,-44.699 -0.482,-46.908 0,-49.974" style="fill:white;fill-rule:nonzero;"/>
                </g>
                <g transform="matrix(1,0,0,1,463.035,779.734)">
                    <path d="M0,-31.805C0.832,-31.756 3.124,-31.509 5.126,-29.755C6.354,-28.679 8.543,-26.1 7.829,-24.005C6.921,-21.338 2.027,-21.577 1.589,-18.931C1.465,-18.183 1.757,-17.566 1.859,-17.352C3.481,-13.929 12.491,-14.247 19.028,-15.608C25.97,-17.052 30.794,-19.811 32.176,-20.574C43.741,-26.969 56.076,-27.401 78.047,-28.171C94.166,-28.736 99.958,-26.901 110.771,-31.093C116.459,-33.298 120.745,-36.089 123.481,-38.105C121.625,-35.718 118.652,-32.445 114.277,-29.632C107.726,-25.42 101.526,-24.49 97.595,-23.872C75.262,-20.362 64.095,-18.607 58.472,-15.9C49.663,-11.658 48.055,-7.884 35.39,-2.715C31.628,-1.181 27.849,0.362 22.57,1.448C17.262,2.541 -0.998,6.3 -10.628,-3.482C-11.778,-4.65 -15.814,-8.75 -15.595,-14.439C-15.433,-18.628 -13.042,-21.658 -12.381,-22.474C-11.372,-23.718 -9.147,-26.462 -5.661,-27.148C-4.105,-27.455 -2.366,-27.338 0.621,-28.317C1.932,-28.747 2.619,-29.105 2.684,-29.614C2.82,-30.672 0.182,-31.733 0,-31.805" style="fill:white;fill-rule:nonzero;"/>
                </g>
                <g transform="matrix(1,0,0,1,639.399,737.447)">
                    <path d="M0,-26.058C-15.514,-26.387 -25.838,-22.507 -32.286,-19.046C-45.317,-12.05 -47.967,-3.84 -61.503,-0.639C-69.234,1.19 -76.026,0.323 -83.562,-0.639C-93.844,-1.951 -102.076,-4.746 -107.667,-7.067C-93.219,-5.469 -82.693,-7.782 -75.82,-10.134C-60.702,-15.308 -59.63,-21.912 -44.153,-25.268C-35.019,-27.248 -25.497,-27.093 -15.778,-26.935C-9.291,-26.829 -3.872,-26.427 0,-26.058" style="fill:white;fill-rule:nonzero;"/>
                </g>
                <g transform="matrix(1,0,0,1,689.653,700.165)">
                    <path d="M0,-86.801C-8.945,-84.661 -21.309,-80.241 -32.724,-70.439C-40.745,-63.552 -45.611,-56.313 -49.962,-49.841C-61.036,-33.367 -60.029,-27.43 -68.691,-17.208C-72.928,-12.207 -80.073,-5.481 -92.181,-0.025C-68.648,0 -56.195,-7.306 -49.232,-13.903C-43.643,-19.198 -39.906,-26.637 -32.432,-41.514C-23.692,-58.909 -21.177,-69.363 -9.788,-79.643C-5.916,-83.137 -2.302,-85.454 0,-86.801" style="fill:white;fill-rule:nonzero;"/>
                </g>
                <g transform="matrix(1,0,0,1,618.801,677.789)">
                    <path d="M0,-47.771C-2,-45.453 -4.851,-41.719 -7.17,-36.607C-11.6,-26.845 -9.966,-21.159 -12.856,-14.901C-15.133,-9.969 -20.591,-3.883 -35.061,0C-33.145,-1.734 -30.298,-4.624 -27.757,-8.766C-22.046,-18.071 -23.374,-24.736 -20.014,-31.847C-17.712,-36.721 -12.633,-43.019 0,-47.771" style="fill:white;fill-rule:nonzero;"/>
                </g>
                <g transform="matrix(1,0,0,1,662.043,643.75)">
                    <path d="M0,-70.122C-0.932,-67.64 -2.474,-64.122 -4.995,-60.302C-9.904,-52.864 -16.182,-47.835 -27.464,-41.343C-51.565,-27.474 -59.166,-29.567 -69.423,-19.309C-70.965,-17.768 -74.827,-13.686 -80.933,-8.619C-85.697,-4.665 -89.828,-1.77 -92.474,0C-90.879,-2.115 -88.69,-5.357 -86.776,-9.642C-84.891,-13.862 -84.274,-16.853 -83.708,-18.699C-81.474,-25.984 -75.42,-30.472 -68.661,-35.353C-53.55,-46.267 -35.617,-52.047 -23.958,-55.805C-22.151,-56.388 -18.387,-57.571 -13.732,-60.042C-7.387,-63.41 -2.842,-67.337 0,-70.122" style="fill:white;fill-rule:nonzero;"/>
                </g>
            </g>
        </g>
    </g>
</svg>
