<?xml version="1.0" encoding="UTF-8" standalone="no"?>
<!DOCTYPE svg PUBLIC "-//W3C//DTD SVG 1.1//EN" "http://www.w3.org/Graphics/SVG/1.1/DTD/svg11.dtd">
<svg width="100%" height="100%" viewBox="0 0 2000 2000" version="1.1" xmlns="http://www.w3.org/2000/svg" xmlns:xlink="http://www.w3.org/1999/xlink" xml:space="preserve" xmlns:serif="http://www.serif.com/" style="fill-rule:evenodd;clip-rule:evenodd;stroke-linejoin:round;stroke-miterlimit:2;">
    <g transform="matrix(0.24,0,0,0.24,0,0)">
        <g id="页面-1" serif:id="页面 1" transform="matrix(4.16667,0,0,4.16667,0,0)">
            <rect x="0" y="0" width="2000" height="2000" style="fill:none;"/>
            <g id="图层-1" serif:id="图层 1">
                <g transform="matrix(1,0,0,1,1034.26,1668.2)">
                    <path d="M0,-45.183L-28.394,-241.564L-117.161,-285.295L-635.485,-29.943L-635.485,152.449L-491.927,81.726L-514.827,240.112L-341.361,183.75L-313.932,-5.963L-117.161,-102.902L0,-45.183Z" style="fill:white;fill-rule:nonzero;"/>
                </g>
                <g transform="matrix(1,0,0,1,583.422,866.043)">
                    <path d="M0,599.673L177.995,511.984L192.155,414.048L-210.87,0L-384.335,56.363L-272.712,171.04L-430.422,198.204L-323.214,345.763L-134.311,313.226L18.689,470.411L0,599.673Z" style="fill:white;fill-rule:nonzero;"/>
                </g>
                <g transform="matrix(1,0,0,1,835.725,1130.52)">
                    <path d="M0,-666.243L-100.408,-528.044L-11.088,-358.441L-113.3,-164.356L-242.011,-142.186L-103.611,0L-6.092,-16.797L153.895,-320.588L0,-666.243Z" style="fill:white;fill-rule:nonzero;"/>
                </g>
                <g transform="matrix(1,0,0,1,1435.42,1121.72)">
                    <path d="M0,698.934L0,516.541L-171.951,431.83L-196.347,263.102L-203.34,214.733L-112.242,121.143L-50.34,57.548L138.564,90.086L238.971,-48.113L-137.322,-87.663L-376.806,158.371L-376.662,159.368L-294.123,730.235L-120.658,786.597L-143.558,628.211L0,698.934Z" style="fill:white;fill-rule:nonzero;"/>
                </g>
                <g transform="matrix(1,0,0,1,1231.84,681.102)">
                    <path d="M0,119.804L-122.814,-156.041L-213.253,-31.562L-90.439,244.283L209.857,275.845L300.296,151.366L0,119.804Z" style="fill:white;fill-rule:nonzero;"/>
                </g>
                <g transform="matrix(1,0,0,1,1387.81,466.419)">
                    <path d="M0,119.804L-122.814,-156.041L-213.253,-31.562L-90.439,244.283L209.857,275.845L300.296,151.366L0,119.804Z" style="fill:white;fill-rule:nonzero;"/>
                </g>
                <g transform="matrix(1,0,0,1,1546.7,247.724)">
                    <path d="M0,119.804L-122.814,-156.041L-213.253,-31.562L-90.439,244.283L209.857,275.845L300.296,151.366L0,119.804Z" style="fill:white;fill-rule:nonzero;"/>
                </g>
                <g transform="matrix(1,0,0,1,957.44,1273.19)">
                    <path d="M0,-90.386L96.108,-76.421L26.564,-8.631L42.981,87.089L-42.981,41.896L-128.943,87.089L-112.526,-8.631L-182.071,-76.421L-85.962,-90.386L-42.981,-177.475L0,-90.386Z" style="fill:white;fill-rule:nonzero;"/>
                </g>
            </g>
        </g>
    </g>
</svg>
