<?xml version="1.0" encoding="UTF-8" standalone="no"?>
<!DOCTYPE svg PUBLIC "-//W3C//DTD SVG 1.1//EN" "http://www.w3.org/Graphics/SVG/1.1/DTD/svg11.dtd">
<svg width="100%" height="100%" viewBox="0 0 1000 1000" version="1.1" xmlns="http://www.w3.org/2000/svg" xmlns:xlink="http://www.w3.org/1999/xlink" xml:space="preserve" xmlns:serif="http://www.serif.com/" style="fill-rule:evenodd;clip-rule:evenodd;stroke-linejoin:round;stroke-miterlimit:2;">
    <g transform="matrix(0.24,0,0,0.24,0,0)">
        <g id="页面-1" serif:id="页面 1" transform="matrix(4.16667,0,0,4.16667,0,0)">
            <rect x="0" y="0" width="1000" height="1000" style="fill:none;"/>
            <g id="图层-1" serif:id="图层 1">
                <g transform="matrix(1,0,0,1,338.474,330.842)">
                    <path d="M0,334.564C6.973,338.817 32.972,353.19 37.521,356.238C36.786,357.304 43.228,367.371 44.441,367.826C28.457,356.498 -37.929,341.456 -79.411,278.937C-104.997,240.375 -111.425,202.974 -110.616,177.7C-110.02,159.046 -113.057,91.218 -68.152,27.484C-5.473,-61.477 112.809,-100.3 214.028,-81.409C254.279,-72.928 298.367,-39.137 297.034,-0.915C296.427,16.461 281.943,31.193 273.732,40.566C287.128,36.677 306.303,28.567 319.133,10.713C354.348,-38.292 315.027,-98.264 312.293,-102.692C270.219,-170.841 175.613,-208.077 76.441,-204.026C-39.065,-199.307 -145.642,-130.93 -194.576,-17.273C-239.645,87.404 -209.923,185.354 -201.417,213.46C-174.733,301.631 -119.017,358.755 -98.3,379.53C-87.556,390.304 -72.828,404.932 -50.3,420.641C-5.193,452.094 22.106,453.658 64.145,477.085C85.231,488.836 119.859,511.047 142.303,542.641C151.188,530.252 165.966,515.679 181.922,501.085C195.458,488.706 208.652,479.197 220.145,471.974C206.874,465.634 185.064,456.442 156.811,450.419C122.166,443.032 105.972,446.41 76.145,438.197C60.575,433.909 27.401,420.565 1.256,401.974C4.515,401.382 17.996,405.678 21.256,405.085C29.607,410.41 43.352,418.341 61.478,424.863C101.052,439.104 125.434,433.652 172.367,442.197C187.103,444.879 209.003,449.842 235.256,459.752C254.399,453.171 269.069,448.3 277.478,445.53C305.975,436.143 320.15,431.912 329.276,421.087C330.916,419.142 340.737,407.085 340.737,407.085C340.737,407.085 308.293,428.419 270.515,429.011C235.761,429.557 246.708,427.268 218.071,424.567C194.21,422.316 176.596,411.997 169.33,408.122C110.445,376.721 118.891,317.129 61.501,287.314C53.634,283.227 42.086,278.403 27.917,266.79C27.338,266.316 26.455,265.592 25.337,264.639C20.531,260.546 0.079,238.55 -7.066,224.344C-17.329,203.938 -17.263,168.33 1.478,125.863C2.886,126.432 7.959,120.517 9.367,121.085C3.956,136.404 -10.71,174.45 5.26,209.739C15.553,232.483 33.307,247.256 46.108,257.928C70.958,278.643 84.366,276.127 99.764,293.921C126.979,325.368 127.184,340.451 139.706,359.232C139.706,359.232 146.33,368.787 155.913,378.208C185.507,407.303 282.21,434.199 334.37,394.751C343.593,387.775 356.363,374.99 380.392,365.21C394.398,359.509 406.751,357.059 414.909,355.881C408.869,354.989 399.619,354.082 388.477,354.948C367.611,356.57 354.918,363.258 343.699,367.386C304.081,381.964 263.991,371.265 250.721,367.697C237.92,364.256 218.193,357.248 196.687,341.813C198.613,339.961 200.539,338.109 202.465,336.257C242.51,360.333 274.508,362.721 293.323,361.789C381.829,357.407 455.964,265.814 464.024,255.68C475.7,237.752 463.123,221.465 492.352,188.693C499.686,180.471 529.096,156.259 541.962,161.665C528.081,155.832 497.862,153.897 484.145,155.752C438.145,161.974 431.359,166.72 413.653,175.795C358.406,204.111 366.212,234.942 312.913,262.592C294.689,272.047 249.375,295.555 207.218,279.98C168.823,265.793 169.727,232.737 120.428,213.771C92.341,202.966 83.333,210.343 63.522,196.668C41.796,181.672 17.796,148.756 27.762,118.617C39.349,83.57 88.81,76.642 97.728,75.393C111.632,73.446 123.345,74.678 131.001,76.015C134.836,69.381 138.671,62.748 142.506,56.114C132.854,54 64.936,40.325 5.761,86.044C-64.085,140.006 -44.336,228.687 -43.795,234.628C-45.938,234.987 -50.071,224.764 -52.214,225.123C-52.979,216.112 -69.802,143.848 -4.579,85.344C61.151,26.387 142.216,41.297 150.902,43.053C154.232,37.631 157.561,32.208 160.891,26.785C148.101,23.08 131.12,19.572 111.003,19.143C81.295,18.51 57.233,24.859 41.687,30.368C42.576,27.739 43.465,25.109 44.354,22.479C56.673,16.432 78.663,7.597 107.465,6.257C134.584,4.996 156.158,10.92 168.825,15.452C172.387,11.177 175.949,6.903 179.511,2.628C91.46,-29.549 -4.117,-7.429 -58.757,56.257C-107.923,113.563 -100.611,178.776 -92.152,222.048C-70.522,280.715 -51.855,302.937 0,334.564" style="fill:white;fill-rule:nonzero;"/>
                </g>
                <g transform="matrix(1,0,0,1,583.326,358.652)">
                    <path d="M0,-65.095C-9.256,-62.574 -23.438,-57.459 -37.937,-46.593C-48.819,-38.437 -56.343,-29.693 -61.259,-22.96C-54.372,-21.628 -48.579,-19.764 -43.884,-17.907C-25.269,-10.54 -19.826,-1.632 -6.919,-0.765C-0.451,-0.33 4.461,0 8.863,-0.881C9.7,-1.049 12.389,-1.635 16.015,-1.581C17.934,-1.553 19.504,-1.354 20.524,-1.192C18.779,-2.469 16.125,-4.031 12.672,-4.613C9.427,-5.16 7.03,-4.58 5.597,-4.38C1.922,-3.867 -3.585,-4.714 -11.491,-10.905C-11.547,-13.767 -11.644,-18.056 -11.817,-23.271C-12.316,-38.386 -12.799,-40.707 -12.167,-44.494C-11.325,-49.535 -8.699,-56.9 0,-65.095" style="fill:white;fill-rule:nonzero;"/>
                </g>
                <g transform="matrix(1,0,0,1,577.418,380.806)">
                    <path d="M0,-10.597C1.397,-6.808 3.742,-1.759 7.735,3.435C10.446,6.962 13.243,9.679 15.665,11.715C32.84,16.072 43.283,16.707 49.821,16.339C51.045,16.27 54.472,16.034 59.16,16.262C66.295,16.609 72.089,17.823 75.952,18.828C73.679,18.67 70.271,18.531 66.141,18.756C61.208,19.025 57.599,19.684 56.479,19.877C45.968,21.693 30.1,21.33 27.792,21.277C11.464,20.902 -1.978,13.559 -22,2.619C-35.032,-4.501 -41.222,-8.541 -56.517,-14.717C-63.764,-17.643 -69.876,-19.678 -73.971,-20.957C-71.327,-24.735 -68.682,-28.512 -66.037,-32.29C-55.253,-29.399 -47.07,-25.922 -41.673,-23.337C-31.291,-18.365 -25.817,-14.131 -15.393,-11.841C-9.065,-10.451 -3.634,-10.409 0,-10.597" style="fill:white;fill-rule:nonzero;"/>
                </g>
                <g transform="matrix(1,0,0,1,493.458,445.093)">
                    <path d="M0,-68.975C20.152,-69.807 34.34,-65.533 43.535,-61.512C59.837,-54.383 69.658,-44.024 92.355,-38.345C98.928,-36.701 104.446,-35.983 107.968,-35.635C108.633,-31.792 110.792,-22.62 118.632,-16.889C123.648,-13.223 128.703,-12.636 137.6,-11.603C146.863,-10.527 155.069,-11.099 163.277,-11.672C170.521,-12.177 173.084,-12.721 178.337,-12.225C184.646,-11.628 189.705,-10.016 193.029,-8.726C190.526,-9.066 186.828,-9.395 182.379,-9.115C177.383,-8.801 173.762,-7.866 172.928,-7.667C166.169,-6.056 117.625,0.832 72.92,-23.108C60.466,-29.778 63.439,-30.738 49.863,-37.947C27.425,-49.863 6.263,-54.165 -8.396,-55.915C-5.597,-60.268 -2.799,-64.621 0,-68.975" style="fill:white;fill-rule:nonzero;"/>
                </g>
                <g transform="matrix(1,0,0,1,473.557,480.617)">
                    <path d="M0,-71.537C7.503,-71.517 18.748,-70.982 32.029,-68.272C52.946,-64.004 66.732,-56.829 77.369,-52.022C92.792,-45.052 115.844,-36.624 147.629,-31.656C149.184,-28.994 151.055,-26.131 153.304,-23.182C154.674,-21.386 156.045,-19.741 157.384,-18.24C179.28,-16.705 193.248,-20.156 202.125,-23.804C205.061,-25.011 210.97,-27.69 219.533,-28.998C228.645,-30.39 236.409,-29.566 241.617,-28.624C239.299,-28.74 235.865,-28.732 231.822,-28.002C224.073,-26.603 218.761,-23.395 216.087,-21.864C216.087,-21.864 214.309,-20.846 189.842,-10.899C163.033,0 127.499,-10.835 109.376,-16.361C94.66,-20.848 91.502,-23.72 77.43,-26.292C61.018,-29.292 57.389,-26.835 41.047,-30.257C25.396,-33.534 23.121,-36.96 9.096,-39.819C-5.074,-42.707 -17.218,-42.158 -25.343,-41.218C-16.896,-51.324 -8.448,-61.431 0,-71.537" style="fill:white;fill-rule:nonzero;"/>
                </g>
                <g transform="matrix(1,0,0,1,375.254,584.389)">
                    <path d="M0,-136.018C20.912,-135.474 41.824,-134.93 62.737,-134.385C63.194,-126.787 65.094,-116.077 72.532,-107.332C84.855,-92.843 104.639,-92.846 120.575,-90.773C174.714,-83.729 176.384,-53.761 211.649,-52.476C261.784,-50.648 274.808,-109.538 339.058,-124.829C374.687,-133.309 407.375,-123.811 428.194,-115.339C420.071,-114.749 406.903,-113.121 391.812,-107.798C337.015,-88.47 330.084,-46.261 276.834,-20.807C257.37,-11.503 233.305,0 206.168,-6.58C165.605,-16.416 161.853,-56.064 109.906,-71.813C91.822,-77.296 85.882,-74.43 62.737,-83.077C27.841,-96.113 14.302,-112.73 9.562,-119.226C4.773,-125.791 1.785,-131.868 0,-136.018" style="fill:white;fill-rule:nonzero;"/>
                </g>
            </g>
        </g>
    </g>
</svg>
