<?xml version="1.0" encoding="UTF-8" standalone="no"?>
<!DOCTYPE svg PUBLIC "-//W3C//DTD SVG 1.1//EN" "http://www.w3.org/Graphics/SVG/1.1/DTD/svg11.dtd">
<svg width="100%" height="100%" viewBox="0 0 1000 1000" version="1.1" xmlns="http://www.w3.org/2000/svg" xmlns:xlink="http://www.w3.org/1999/xlink" xml:space="preserve" xmlns:serif="http://www.serif.com/" style="fill-rule:evenodd;clip-rule:evenodd;stroke-linejoin:round;stroke-miterlimit:2;">
    <g transform="matrix(0.24,0,0,0.24,0,0)">
        <g id="页面-1" serif:id="页面 1" transform="matrix(4.16667,0,0,4.16667,0,0)">
            <rect x="0" y="0" width="1000" height="1000" style="fill:none;"/>
            <g id="图层-1" serif:id="图层 1">
                <g transform="matrix(1,0,0,1,348.333,289.517)">
                    <path d="M0,-88.739C-7.996,-85.615 -25.5,-77.514 -39.688,-58.996C-51.056,-44.159 -55.172,-29.319 -56.815,-21.109C-64.378,-20.087 -73.203,-18.251 -82.75,-14.97C-101.519,-8.518 -115.476,0.907 -124.667,8.372C-124.054,-0.358 -120.647,-34.245 -92.667,-61.109C-55.17,-97.111 -5.642,-89.683 0,-88.739" style="fill:white;fill-rule:nonzero;"/>
                </g>
                <g transform="matrix(1,0,0,1,123.815,486.998)">
                    <path d="M0,-49.405C32.255,-50.954 45.172,-43.326 50.824,-35.543C53.538,-31.806 57.385,-24.167 66.427,-13.01C70.539,-7.936 74.218,-3.995 76.741,-1.405C45.887,1.549 33.304,-5.539 27.556,-12.721C24.119,-17.016 22.135,-22.584 14.222,-33.109C8.675,-40.487 3.466,-45.977 0,-49.405" style="fill:white;fill-rule:nonzero;"/>
                </g>
                <g transform="matrix(1,0,0,1,113.148,550.985)">
                    <path d="M0,-18.874C42.074,-47.615 92.704,-48.783 118.815,-37.541C140.148,-28.355 135.323,-21.176 151.779,-7.129C160.111,-0.017 167.848,4.649 172.741,7.793C121.668,29.909 96.494,21.742 79.704,15.2C56.889,6.311 58.991,-6.252 37.037,-14.133C22.516,-19.346 9.141,-19.549 0,-18.874" style="fill:white;fill-rule:nonzero;"/>
                </g>
                <g transform="matrix(1,0,0,1,223.074,622.62)">
                    <path d="M0,-29.768C-34.861,-38.826 -45.037,-33.477 -53.63,-26.509C-59.312,-21.901 -64.354,-12.663 -74.667,-7.249C-79.739,-4.587 -82.399,-4.326 -85.926,-4.286C-72.871,7.513 -56.626,9.058 -50.37,8.32C-39.532,7.043 -36.148,4.01 -20.741,-15.842C-15.317,-22.83 -4.086,-27.047 0,-29.768" style="fill:white;fill-rule:nonzero;"/>
                </g>
                <g transform="matrix(1,0,0,1,591.104,526.331)">
                    <path d="M0,63.72C-0.104,62.705 -0.313,61.133 -0.771,59.261C-3.908,46.441 -13.738,40.059 -18.993,34.372C-24.307,28.622 -29.764,18.368 -29.067,-1.331C-27.695,8.169 -24.637,14.727 -22.252,18.817C-14.496,32.12 -4.726,34.985 -0.771,47.113C1.401,53.773 0.742,59.921 0,63.72M23.541,45.857C13.896,9.632 -1.634,0.447 -11.708,-11.405C-20.505,-21.755 -24.993,-31.185 -27.882,-37.479C-54.563,14.644 -51.053,32.551 -45.067,45.484C-31.391,75.031 -18.697,70.159 -8.326,87.558C-4.384,94.172 -5.863,96.99 -6.116,101.199C22.54,74.057 26.583,57.283 23.541,45.857" style="fill:white;fill-rule:nonzero;"/>
                </g>
                <g transform="matrix(1,0,0,1,780.723,520.531)">
                    <path d="M0,-5.457C-24.998,17.273 -26.218,37.266 -45.649,56.024C-55.413,65.45 -72.19,76.949 -101.916,81.695C-101.034,83.477 -100.155,85.291 -99.279,87.135C-98.57,88.628 -97.879,90.11 -97.205,91.58C-103.766,89.927 -114.381,88.11 -127.257,89.737C-138.375,91.143 -146.349,94.507 -148.464,95.432C-159.851,100.409 -167.402,107.226 -179.279,117.95C-182.198,120.586 -187.375,125.42 -190.723,128.547C-196.855,134.272 -200.958,138.244 -201.501,138.691C-230.838,162.867 -257.897,148.262 -287.427,167.728C-296.523,173.724 -308.458,184.67 -317.649,206.246C-326.834,208.222 -336.02,210.197 -345.205,212.172C-338.485,196.568 -326.572,176.238 -305.797,160.617C-294.98,152.483 -284.462,147.656 -283.003,146.996C-263.844,138.326 -257.01,141.521 -238.834,133.654C-233.334,131.273 -207.301,120.006 -208.456,108.335C-209.203,100.795 -221.005,96.07 -227.697,93.39C-238.688,88.99 -248.217,88.688 -261.649,88.913C-273.905,89.119 -289.901,89.772 -308.76,91.58C-306.967,86.499 -304.575,80.768 -301.353,74.691C-297.379,67.194 -293.107,60.987 -289.205,56.024C-303.826,48.5 -323.615,35.573 -339.872,14.246C-344.665,7.958 -352.11,-1.978 -357.353,-17.161C-361.982,-30.564 -362.94,-42.397 -362.983,-50.346C-392.36,-53.881 -410.302,-64.193 -421.057,-72.568C-442.956,-89.623 -446.859,-107.836 -469.649,-119.087C-486.438,-127.375 -503.474,-126.948 -514.39,-125.605C-492.702,-134.605 -477.2,-133.441 -466.983,-130.642C-436.463,-122.282 -429.624,-92.9 -394.39,-79.383C-378.665,-73.35 -364.011,-73.059 -354.094,-73.754C-352.714,-77.726 -350.306,-83.47 -346.045,-89.517C-337.367,-101.832 -327.861,-105.672 -321.797,-111.087C-313.952,-118.092 -306.805,-132.257 -310.538,-163.828C-304.102,-148.711 -298.125,-127.294 -305.797,-106.642C-314.059,-84.405 -331.053,-82.149 -334.954,-61.619C-339.818,-36.02 -318.639,-11.937 -310.92,-3.16C-296.516,13.218 -280.143,21.336 -270.538,25.209C-263.806,18.623 -253.913,7.585 -245.946,-8.272C-237.729,-24.626 -237.681,-33.927 -229.946,-50.939C-225.587,-60.525 -217.969,-74.358 -204.168,-89.457C-202.413,-82.311 -199.117,-72.411 -192.612,-61.902C-187.743,-54.035 -182.449,-48.046 -178.001,-43.717C-127.549,-70.113 -119.597,-81.277 -119.597,-81.277C-109.096,-96.021 -102.405,-119.034 -110.834,-135.087C-115.831,-144.602 -122.465,-144.672 -129.205,-154.05C-139.736,-168.703 -137.976,-188.616 -133.561,-205.559C-133.246,-195.88 -131.236,-181.482 -121.647,-169.14C-112.595,-157.489 -104.304,-157.345 -96.02,-148.716C-78.298,-130.258 -82.812,-96.098 -88.62,-78.388C-104.062,-31.303 -155.92,-17.378 -160.316,-16.272C-156.976,-10.903 -152.008,-2.393 -146.983,8.617C-141.669,20.26 -140.624,25.208 -136.246,33.675C-132.756,40.424 -126.875,49.937 -116.76,60.172C-106.332,58.244 -90.012,53.946 -73.501,42.987C-49.544,27.086 -45.328,10.531 -23.131,-5.605C-12.824,-13.098 4.132,-22.516 30.795,-26.346C22.882,-22.445 11.52,-15.932 0,-5.457M-89.723,123.135C-93.273,125.551 -114.414,139.345 -138.168,131.358C-149.363,127.593 -156.809,120.447 -161.057,115.358C-145.105,99.397 -133.138,100.032 -127.723,100.024C-110.612,100.001 -111.286,102.416 -92.787,109.376C-87.336,111.427 -82.839,113.211 -79.723,114.469C-81.798,116.735 -85.108,119.994 -89.723,123.135M-224.834,194.024C-230.371,193.018 -237.33,191.753 -243.743,187.267C-253.495,180.446 -256.82,169.787 -257.946,165.135C-254.249,164.957 -248.853,165.09 -242.612,166.691C-233.013,169.155 -226.65,173.75 -224.602,175.313C-215.608,182.178 -211.233,190.531 -209.306,194.965C-213.053,195.183 -218.469,195.181 -224.834,194.024M-400.612,124.246C-413.894,121.713 -438.168,107.802 -457.946,89.802C-446.702,97.311 -426.39,108.024 -406.39,107.58C-386.875,107.146 -379.742,101.905 -364.152,103.873C-350.866,105.55 -330.703,113.403 -309.946,142.691C-314.983,148.024 -318.686,153.358 -323.723,158.691C-334.676,145.192 -344.355,134.052 -360.856,128.094C-379.439,121.384 -381.466,127.899 -400.612,124.246M-473.946,54.246C-467.421,48.516 -453.911,38.566 -436.168,38.246C-424.746,38.041 -414.479,41.878 -406.322,44.927C-398.321,47.917 -392.019,51.269 -387.723,53.802C-389.823,54.4 -392.951,55.383 -396.612,56.913C-406.63,61.099 -410.648,65.197 -416.168,68.246C-428.688,75.163 -442.434,73.091 -444.834,72.691C-461.058,69.984 -470.893,58.235 -473.946,54.246M-488.612,90.469C-499.296,104.769 -503.06,109.242 -509.36,111.327C-517.226,113.93 -528.911,118.977 -556.39,107.135C-553.275,105.121 -548.598,102.023 -543.042,98.045C-534.516,91.939 -529.135,87.494 -527.501,86.246C-520.696,81.05 -507.494,76.816 -479.279,81.802C-481.411,83.718 -485.363,86.12 -488.612,90.469M-499.279,5.802C-491.5,-18.3 -480.613,-27.613 -471.723,-31.531C-464.326,-34.792 -457.857,-34.518 -442.834,-39.976C-433.178,-43.484 -425.593,-47.324 -420.595,-50.088C-422.244,-43.203 -427.287,-26.332 -442.834,-12.42C-465.917,8.235 -494.146,6.254 -499.279,5.802M-540.168,-156.865C-545.281,-159.92 -552.836,-163.549 -563.279,-165.754C-561.61,-167.105 -539.632,-184.276 -512.716,-175.66C-490.589,-168.578 -481.574,-149.333 -480.168,-146.198C-484.205,-144.698 -490.141,-142.915 -497.501,-142.198C-503.132,-141.65 -511.7,-140.815 -520.859,-144.112C-529.478,-147.215 -530.357,-151.002 -540.168,-156.865M100.943,-51.754C93.165,-72.145 81.559,-85.96 74.054,-93.605C76.833,-104.292 79.796,-122.306 73.832,-142.198C68.124,-161.239 56.969,-172.885 36.943,-193.309C25.92,-204.552 9.809,-219.434 -11.872,-234.642C-13.784,-241.538 -17.102,-251.187 -23.057,-261.754C-26.164,-267.267 -34.237,-280.568 -54.168,-297.976C-69.108,-311.025 -89.791,-329.09 -122.973,-339.294C-147.967,-346.98 -170.54,-347.281 -187.057,-345.754C-200.574,-355.886 -233.262,-377.504 -280.39,-381.531C-338.737,-386.518 -381.438,-361.313 -394.834,-352.642C-383.398,-355.459 -350.476,-361.929 -315.959,-345.499C-300.25,-338.022 -289.18,-328.167 -282.094,-320.568C-277.384,-321.112 -222.492,-326.553 -189.865,-286.352C-174.999,-268.035 -171.133,-248.099 -169.946,-237.531C-178.763,-250.59 -188.365,-259.747 -196.834,-266.198C-254.347,-310.007 -332.89,-284.903 -344.909,-280.865C-340.934,-286.703 -333.158,-296.492 -320.168,-304.42C-308.317,-311.653 -297.171,-314.259 -290.39,-315.309C-296.758,-319.823 -306.942,-325.991 -320.504,-329.793C-374.576,-344.951 -423.603,-306.022 -431.793,-299.52C-457.216,-279.333 -470.927,-254.858 -478.242,-237.605C-490.379,-235.305 -512.347,-229.448 -534.39,-212.865C-562.198,-191.945 -574.345,-165.827 -578.983,-154.05C-584.429,-152.704 -597.77,-148.609 -608.612,-136.198C-625.237,-117.166 -622.659,-93.835 -622.168,-89.976C-618.309,-89.776 -608.522,-88.757 -598.834,-81.754C-589.16,-74.759 -585.125,-65.8 -583.723,-62.198C-579.76,-63.806 -573.559,-65.772 -565.946,-65.754C-554.316,-65.726 -548.699,-61.091 -535.279,-58.642C-530.082,-57.694 -522.386,-56.831 -512.612,-57.754C-520.293,-52.018 -526.282,-47.21 -530.39,-43.828C-534.535,-40.414 -537.784,-37.614 -542.983,-34.346C-547.462,-31.531 -551.399,-29.619 -554.094,-28.42C-543.292,-21.446 -535.869,-14.396 -531.075,-9.226C-518.117,4.747 -515.293,14.759 -501.946,24.321C-494.518,29.642 -487.281,32.351 -482.39,33.802C-488.247,39.367 -497.46,47.356 -509.946,55.135C-528.899,66.944 -539.681,68.477 -550.834,75.135C-563.161,82.494 -578.167,97.441 -587.543,131.241C-580.359,128.511 -568.824,125.159 -554.397,125.313C-535.376,125.516 -520.958,131.712 -513.501,135.58C-515.927,137.041 -519.85,139.856 -523.057,144.691C-528.115,152.317 -528.153,160.085 -528.02,162.987C-510.982,152.908 -497.146,150.958 -487.946,150.913C-464.799,150.801 -459.096,162.695 -428.882,164.387C-412.502,165.304 -408.061,162.151 -396.574,166.368C-394.18,167.247 -371.948,175.722 -369.235,192.044C-365.907,212.073 -394.108,231.051 -399.057,234.246C-421.379,248.662 -439.789,244.967 -461.057,265.358C-464.619,268.773 -467.214,271.86 -468.76,273.802C-450.785,280.716 -432.81,287.629 -414.834,294.543C-407.153,270.711 -394.591,256.836 -387.279,250.024C-368.28,232.324 -345.143,225.428 -333.723,222.024C-315.347,216.547 -312.171,219.247 -299.296,212.651C-286.225,205.953 -280.539,198.58 -266.592,195.455C-258.178,193.571 -250.824,194.142 -245.946,194.913C-250.005,196.017 -255.904,197.976 -262.39,201.58C-276.974,209.682 -280.067,218.063 -290.39,224.691C-302.536,232.489 -307.835,227.039 -326.168,231.802C-331.011,233.06 -367.889,243.211 -379.946,274.246C-382.232,280.132 -386.118,293.185 -381.649,311.728C-372.637,316.864 -363.625,322 -354.612,327.135C-355.681,322.667 -357.029,315.994 -357.723,307.802C-358.871,294.265 -359.749,283.901 -355.279,273.802C-349.016,259.653 -335.305,252.919 -328.612,250.246C-330.094,257.49 -330.899,267.51 -326.834,277.58C-314.848,307.272 -272.151,308.568 -270.612,324.691C-269.962,331.5 -276.622,341.292 -306.39,354.987C-292.76,363.679 -279.131,372.37 -265.501,381.061C-260.732,376.502 -254.042,369.894 -246.39,361.58C-230.937,344.791 -223.208,336.26 -223.057,329.58C-222.688,313.265 -244.591,297.498 -260.355,291.408C-269.306,287.95 -274.235,288.401 -284.168,282.913C-294.418,277.249 -301.385,270.018 -305.723,264.691C-289.232,262.855 -279.858,256.949 -274.39,252.024C-266.289,244.728 -265.174,238.154 -256.168,229.802C-247.362,221.636 -237.616,217.892 -231.057,216.024C-242.243,221.117 -246.68,227.211 -248.612,232.024C-250.754,237.359 -249.369,240 -252.612,249.802C-254.767,256.313 -256.315,260.793 -260.612,264.024C-265.337,267.577 -270.873,267.732 -273.723,267.58C-270.78,268.844 -266.181,270.658 -260.39,272.246C-241.873,277.326 -233.404,274.006 -216.39,276.024C-207.614,277.065 -192.562,280.002 -177.38,288.713C-164.421,296.149 -155.75,305.278 -150.538,311.728C-140.662,307.777 -130.785,303.827 -120.909,299.876C-132.42,284.279 -144.14,277.522 -152.834,274.246C-171.716,267.134 -186.751,272.517 -204.168,260.913C-211.301,256.16 -215.932,250.492 -218.686,246.543L-203.279,246.543C-196.752,251.7 -186.62,258.324 -173.057,261.802C-154.574,266.542 -144.461,261.66 -131.279,268.246C-124.492,271.637 -115.834,278.596 -109.057,294.543C-99.97,290.395 -90.884,286.246 -81.797,282.098C-89.459,274.226 -101.473,263.652 -118.39,255.358C-136.8,246.332 -144.264,248.219 -155.279,240.913C-176.485,226.849 -191.249,191.719 -180.612,175.58C-164.873,151.699 -109.983,194.376 -48.39,164.913C-24.211,153.347 -12.849,137.29 18.5,133.16C38.023,130.588 54.849,134.018 66.351,137.506C64.496,131.507 58.444,114.703 41.388,101.58C24.657,88.707 7.253,87.007 0.943,86.691C6.781,80.491 15.951,72.581 28.943,67.135C43.839,60.892 57.005,60.72 65.388,60.691C73.146,60.664 79.632,61.46 84.277,62.246C86.819,56.123 93.703,37.261 86.655,15.824C83.638,6.648 78.994,-0.184 75.24,-4.716C79.161,-4.588 84.503,-3.986 90.499,-1.976C98.557,0.726 104.34,4.812 107.832,7.728C109.312,-3.49 110.736,-26.083 100.943,-51.754" style="fill:white;fill-rule:nonzero;"/>
                </g>
            </g>
        </g>
    </g>
</svg>
